<svg xmlns="http://www.w3.org/2000/svg" width="335" height="335" fill="none" class="disk" viewBox="0 0 335 335">
  <path stroke="#fff" d="M10 74.5h315" class="line-0"/>
  <path stroke="#fff" d="M10 74.5h315" class="line-1"/>
  <path stroke="#fff" d="m300.897 44.512-270 60" class="line-2"/>
  <path stroke="#fff" d="m256.263 26.859-180.91 96.419" class="line-3"/>
  <path stroke="#fff" d="m207.592 18.211-81 114" class="line-4"/>
  <path stroke="#fff" d="M167.5 16v119" class="line-5"/>
  <path stroke="#fff" d="m127.408 18.21 81 114" class="line-6"/>
  <path stroke="#fff" d="m78.735 26.859 180.91 96.419" class="line-7"/>
  <path stroke="#fff" d="m34.108 44.512 270 60" class="line-8"/>
  <path stroke="#fff" d="M10 74.5h315" class="line-9"/>
  <path stroke="#fff" d="M10 74.5h315" class="line-10"/>
  <path stroke="#fff" d="M167.5 16.5c43.448 0 82.76 6.654 111.192 17.395 14.218 5.37 25.69 11.755 33.598 18.818S324.5 67.478 324.5 75.5s-4.302 15.724-12.21 22.787-19.38 13.447-33.598 18.818C250.26 127.846 210.948 134.5 167.5 134.5s-82.76-6.654-111.192-17.395c-14.218-5.371-25.69-11.755-33.598-18.818S10.5 83.522 10.5 75.5s4.302-15.724 12.21-22.787 19.38-13.447 33.598-18.818C84.74 23.153 124.052 16.5 167.5 16.5Z" class="circle-0"/>
  <path stroke="#fff" d="M167.5 32.5c35.998 0 68.568 4.809 92.121 12.57 11.779 3.88 21.275 8.492 27.817 13.587C293.985 63.757 297.5 69.284 297.5 75s-3.515 11.242-10.062 16.343c-6.542 5.095-16.038 9.706-27.817 13.588-23.553 7.76-56.123 12.569-92.121 12.569s-68.568-4.809-92.121-12.569c-11.78-3.882-21.276-8.493-27.817-13.588C41.016 86.243 37.5 80.716 37.5 75s3.515-11.242 10.063-16.343c6.54-5.095 16.037-9.706 27.816-13.588C98.932 37.31 131.502 32.5 167.5 32.5Z" class="circle-1"/>
  <path stroke="#fff" d="M167.5 50.5c25.788 0 49.117 2.851 65.983 7.451 8.437 2.301 15.229 5.032 19.899 8.043 4.692 3.026 7.118 6.25 7.118 9.506s-2.426 6.48-7.118 9.506c-4.67 3.011-11.462 5.742-19.899 8.043-16.866 4.6-40.195 7.451-65.983 7.451s-49.117-2.851-65.983-7.451c-8.437-2.301-15.228-5.032-19.899-8.043-4.692-3.026-7.118-6.25-7.118-9.506s2.425-6.48 7.118-9.506c4.67-3.011 11.462-5.742 19.899-8.043 16.866-4.6 40.195-7.451 65.983-7.451Z" class="circle-2"/>
  <path stroke="#fff" d="M167 66.5c14.339 0 27.307 1.062 36.68 2.774 4.69.857 8.454 1.872 11.035 2.987 1.292.558 2.259 1.13 2.895 1.697.638.57.89 1.085.89 1.542s-.252.972-.89 1.542c-.636.568-1.603 1.14-2.895 1.697-2.581 1.115-6.345 2.13-11.035 2.987-9.373 1.712-22.341 2.774-36.68 2.774s-27.307-1.062-36.68-2.774c-4.69-.857-8.454-1.872-11.035-2.987-1.292-.558-2.259-1.13-2.895-1.697-.638-.57-.89-1.085-.89-1.542s.252-.972.89-1.542c.636-.568 1.603-1.14 2.895-1.697 2.581-1.115 6.345-2.13 11.035-2.987 9.373-1.712 22.341-2.774 36.68-2.774Z" class="circle-3"/>
  <circle cx="167.5" cy="74.5" r=".5" stroke="#fff" class="circle-4"/>
</svg>
