<svg xmlns="http://www.w3.org/2000/svg" width="632" height="632" viewBox="0 0 632 632" fill="none"><metadata><rdf:RDF xmlns:rdf="http://www.w3.org/1999/02/22-rdf-syntax-ns#" xmlns:dc="http://purl.org/dc/elements/1.1/"><rdf:Description><dc:creator>RealFaviconGenerator</dc:creator><dc:source>https://realfavicongenerator.net</dc:source></rdf:Description></rdf:RDF></metadata><rect width="632" height="632" rx="80" fill="#F4ECDE"></rect><path d="M306.372 72.9392C312.537 70.3855 319.464 70.3855 325.629 72.9392L481.062 137.321C487.227 139.875 492.125 144.773 494.679 150.938L559.061 306.371C561.615 312.536 561.615 319.464 559.061 325.63L494.679 481.061C492.126 487.227 487.227 492.126 481.062 494.679L325.629 559.061C319.464 561.615 312.537 561.615 306.372 559.061L150.939 494.679C144.774 492.126 139.876 487.227 137.322 481.061L72.939 325.63C70.3852 319.464 70.3852 312.536 72.939 306.371L137.322 150.939C139.876 144.774 144.774 139.875 150.939 137.321L306.372 72.9392ZM316.01 149.538C224.073 149.538 149.544 224.068 149.544 316.005C149.544 407.942 224.073 482.472 316.01 482.472C407.947 482.472 482.477 407.942 482.477 316.005C482.477 224.068 407.947 149.538 316.01 149.538Z" fill="#664E4C"></path></svg>